<svg width="300" height="300" viewBox="0 0 300 300" fill="none" xmlns="http://www.w3.org/2000/svg">
<g clip-path="url(#clip0_19_1656)">
<path fill-rule="evenodd" clip-rule="evenodd" d="M299.169 93.5817C299.169 90.0083 299.169 86.4349 299.152 82.8615C299.136 79.8532 299.103 76.8449 299.019 73.8366C298.845 67.2798 298.454 60.6731 297.291 54.1911C296.111 47.6094 294.175 41.4848 291.133 35.5014C288.141 29.626 284.235 24.2576 279.573 19.5956C274.911 14.9335 269.535 11.0277 263.659 8.03601C257.684 4.99446 251.56 3.06648 244.986 1.87812C238.504 0.714681 231.889 0.3241 225.332 0.149584C222.324 0.066482 219.316 0.033241 216.307 0.0166205C212.734 0 209.161 0 205.587 0H93.5817C90.0083 0 86.4349 0 82.8615 0.0166205C79.8532 0.033241 76.8449 0.066482 73.8366 0.149584C67.2798 0.33241 60.6648 0.714681 54.1828 1.88643C47.6011 3.06648 41.4848 5.00277 35.5097 8.04432C29.6343 11.036 24.2576 14.9418 19.5956 19.6039C14.9335 24.2659 11.0277 29.6343 8.03601 35.5097C4.99446 41.4931 3.05817 47.6177 1.87812 54.1994C0.714681 60.6814 0.3241 67.2964 0.149584 73.8449C0.066482 76.8532 0.033241 79.8615 0.0166205 82.8698C0 86.4349 0 90.0083 0 93.5817V205.579C0 209.152 0 212.726 0.0166205 216.299C0.033241 219.307 0.066482 222.316 0.149584 225.324C0.3241 231.881 0.714681 238.488 1.87812 244.97C3.05817 251.551 4.99446 257.676 8.03601 263.659C11.0277 269.535 14.9335 274.903 19.5956 279.565C24.2576 284.227 29.6343 288.133 35.5097 291.125C41.4848 294.166 47.6094 296.094 54.1828 297.283C60.6648 298.446 67.2798 298.837 73.8366 299.011C76.8449 299.094 79.8532 299.127 82.8615 299.144C86.4349 299.169 90.0083 299.161 93.5817 299.161H205.579C209.152 299.161 212.726 299.161 216.299 299.144C219.307 299.127 222.316 299.094 225.324 299.011C231.881 298.837 238.496 298.446 244.978 297.283C251.56 296.102 257.676 294.166 263.651 291.125C269.526 288.133 274.903 284.227 279.565 279.565C284.227 274.903 288.133 269.535 291.125 263.659C294.166 257.676 296.103 251.551 297.283 244.97C298.446 238.488 298.837 231.873 299.011 225.324C299.094 222.316 299.127 219.307 299.144 216.299C299.169 212.726 299.161 209.152 299.161 205.579V93.5817H299.169Z" fill="url(#paint0_linear_19_1656)"/>
<path fill-rule="evenodd" clip-rule="evenodd" d="M211.496 45.7064C210.773 45.7728 204.349 46.9113 203.576 47.0692L114.657 65.0111L114.623 65.0194C112.305 65.5097 110.485 66.3324 109.08 67.5125C107.385 68.9335 106.446 70.9446 106.089 73.2881C106.014 73.7867 105.889 74.8005 105.889 76.2964C105.889 76.2964 105.889 167.144 105.889 187.587C105.889 190.188 105.681 192.715 103.92 194.867C102.158 197.019 99.9806 197.668 97.4294 198.183C95.4931 198.573 93.5568 198.964 91.6205 199.355C84.2743 200.834 79.4959 201.839 75.1662 203.518C71.0277 205.122 67.928 207.166 65.4598 209.759C60.5651 214.886 58.579 221.842 59.2604 228.357C59.8421 233.917 62.3435 239.235 66.6399 243.166C69.5402 245.825 73.1634 247.845 77.4349 248.701C81.8643 249.59 86.5845 249.283 93.482 247.886C97.1551 247.147 100.596 245.992 103.87 244.055C107.111 242.144 109.886 239.593 112.055 236.485C114.233 233.368 115.637 229.903 116.41 226.222C117.208 222.424 117.399 218.992 117.399 215.202V118.679C117.399 113.51 118.862 112.147 123.033 111.133C123.033 111.133 196.945 96.2244 200.393 95.5512C205.205 94.6288 207.474 96 207.474 101.044V166.936C207.474 169.546 207.449 172.188 205.67 174.349C203.909 176.501 201.731 177.15 199.18 177.665C197.244 178.055 195.308 178.446 193.371 178.837C186.025 180.316 181.247 181.321 176.917 183C172.778 184.604 169.679 186.648 167.211 189.241C162.316 194.368 160.155 201.324 160.837 207.839C161.418 213.399 164.094 218.717 168.391 222.648C171.291 225.307 174.914 227.269 179.186 228.133C183.615 229.022 188.335 228.706 195.233 227.319C198.906 226.579 202.346 225.474 205.621 223.537C208.862 221.626 211.637 219.075 213.806 215.967C215.983 212.85 217.388 209.385 218.161 205.704C218.958 201.906 218.992 198.474 218.992 194.684V53.5679C219.008 48.4487 216.307 45.2908 211.496 45.7064Z" fill="white"/>
</g>
<defs>
<linearGradient id="paint0_linear_19_1656" x1="149.584" y1="298.009" x2="149.584" y2="6.44757" gradientUnits="userSpaceOnUse">
<stop stop-color="#FA233B"/>
<stop offset="1" stop-color="#FB5C74"/>
</linearGradient>
<clipPath id="clip0_19_1656">
<rect width="300" height="300" fill="white"/>
</clipPath>
</defs>
</svg>
