<svg width="300" height="300" viewBox="0 0 300 300" fill="none" xmlns="http://www.w3.org/2000/svg">
<g clip-path="url(#clip0_19_1669)">
<path d="M150.049 0C87.4254 0 69.1103 0.064629 65.5502 0.359999C52.6988 1.42855 44.7019 3.4526 35.9896 7.79131C29.2756 11.1263 23.9803 14.992 18.7544 20.4109C9.237 30.2933 3.46884 42.4512 1.38073 56.9032C0.365584 63.9192 0.070211 65.35 0.0102299 101.187C-0.0127874 113.133 0.0102299 128.854 0.0102299 149.941C0.0102299 212.531 0.0793949 230.833 0.379414 234.387C1.41769 246.895 3.37881 254.765 7.5319 263.374C15.4689 279.852 30.6275 292.222 48.4857 296.838C54.6692 298.431 61.4987 299.308 70.2663 299.723C73.981 299.885 111.843 300 149.728 300C187.613 300 225.499 299.954 229.121 299.769C239.273 299.291 245.168 298.5 251.686 296.815C269.66 292.176 284.541 279.991 292.64 263.281C296.712 254.881 298.777 246.711 299.712 234.855C299.915 232.27 300 191.058 300 149.902C300 108.738 299.908 67.6026 299.705 65.0177C298.759 52.9706 296.694 44.8699 292.49 36.3076C289.041 29.2986 285.211 24.0642 279.65 18.7124C269.727 9.23153 257.59 3.46178 243.128 1.37548C236.121 0.362268 234.725 0.0622488 198.871 0H150.049Z" fill="url(#paint0_radial_19_1669)"/>
<path d="M150.049 0C87.4254 0 69.1103 0.064629 65.5502 0.359999C52.6988 1.42855 44.7019 3.4526 35.9896 7.79131C29.2756 11.1263 23.9803 14.992 18.7544 20.4109C9.237 30.2933 3.46884 42.4512 1.38073 56.9032C0.365584 63.9192 0.070211 65.35 0.0102299 101.187C-0.0127874 113.133 0.0102299 128.854 0.0102299 149.941C0.0102299 212.531 0.0793949 230.833 0.379414 234.387C1.41769 246.895 3.37881 254.765 7.5319 263.374C15.4689 279.852 30.6275 292.222 48.4857 296.838C54.6692 298.431 61.4987 299.308 70.2663 299.723C73.981 299.885 111.843 300 149.728 300C187.613 300 225.499 299.954 229.121 299.769C239.273 299.291 245.168 298.5 251.686 296.815C269.66 292.176 284.541 279.991 292.64 263.281C296.712 254.881 298.777 246.711 299.712 234.855C299.915 232.27 300 191.058 300 149.902C300 108.738 299.908 67.6026 299.705 65.0177C298.759 52.9706 296.694 44.8699 292.49 36.3076C289.041 29.2986 285.211 24.0642 279.65 18.7124C269.727 9.23153 257.59 3.46178 243.128 1.37548C236.121 0.362268 234.725 0.0622488 198.871 0H150.049Z" fill="url(#paint1_radial_19_1669)"/>
<path d="M150.049 0C87.4254 0 69.1103 0.064629 65.5502 0.359999C52.6988 1.42855 44.7019 3.4526 35.9896 7.79131C29.2756 11.1263 23.9803 14.992 18.7544 20.4109C9.237 30.2933 3.46884 42.4512 1.38073 56.9032C0.365584 63.9192 0.070211 65.35 0.0102299 101.187C-0.0127874 113.133 0.0102299 128.854 0.0102299 149.941C0.0102299 212.531 0.0793949 230.833 0.379414 234.387C1.41769 246.895 3.37881 254.765 7.5319 263.374C15.4689 279.852 30.6275 292.222 48.4857 296.838C54.6692 298.431 61.4987 299.308 70.2663 299.723C73.981 299.885 111.843 300 149.728 300C187.613 300 225.499 299.954 229.121 299.769C239.273 299.291 245.168 298.5 251.686 296.815C269.66 292.176 284.541 279.991 292.64 263.281C296.712 254.881 298.777 246.711 299.712 234.855C299.915 232.27 300 191.058 300 149.902C300 108.738 299.908 67.6026 299.705 65.0177C298.759 52.9706 296.694 44.8699 292.49 36.3076C289.041 29.2986 285.211 24.0642 279.65 18.7124C269.727 9.23153 257.59 3.46178 243.128 1.37548C236.121 0.362268 234.725 0.0622488 198.871 0H150.049Z" fill="url(#paint2_radial_19_1669)"/>
<path d="M150.049 0C87.4254 0 69.1103 0.064629 65.5502 0.359999C52.6988 1.42855 44.7019 3.4526 35.9896 7.79131C29.2756 11.1263 23.9803 14.992 18.7544 20.4109C9.237 30.2933 3.46884 42.4512 1.38073 56.9032C0.365584 63.9192 0.070211 65.35 0.0102299 101.187C-0.0127874 113.133 0.0102299 128.854 0.0102299 149.941C0.0102299 212.531 0.0793949 230.833 0.379414 234.387C1.41769 246.895 3.37881 254.765 7.5319 263.374C15.4689 279.852 30.6275 292.222 48.4857 296.838C54.6692 298.431 61.4987 299.308 70.2663 299.723C73.981 299.885 111.843 300 149.728 300C187.613 300 225.499 299.954 229.121 299.769C239.273 299.291 245.168 298.5 251.686 296.815C269.66 292.176 284.541 279.991 292.64 263.281C296.712 254.881 298.777 246.711 299.712 234.855C299.915 232.27 300 191.058 300 149.902C300 108.738 299.908 67.6026 299.705 65.0177C298.759 52.9706 296.694 44.8699 292.49 36.3076C289.041 29.2986 285.211 24.0642 279.65 18.7124C269.727 9.23153 257.59 3.46178 243.128 1.37548C236.121 0.362268 234.725 0.0622488 198.871 0H150.049Z" fill="url(#paint3_radial_19_1669)"/>
<path d="M150.061 38.5206C119.768 38.5206 115.966 38.6529 104.068 39.194C92.1936 39.7373 84.0882 41.6159 76.9959 44.3723C69.6597 47.2191 63.4365 51.0273 57.2367 57.2248C51.0322 63.4202 47.2211 69.6386 44.3629 76.9671C41.5975 84.0564 39.7152 92.1581 39.1808 104.019C38.6487 115.908 38.5092 119.709 38.5092 149.98C38.5092 180.251 38.644 184.038 39.1831 195.927C39.7292 207.793 41.6092 215.892 44.3651 222.979C47.2165 230.31 51.0275 236.528 57.2297 242.723C63.4273 248.923 69.6504 252.741 76.9819 255.588C84.0788 258.344 92.1866 260.223 104.059 260.766C115.957 261.307 119.756 261.439 150.047 261.439C180.342 261.439 184.132 261.307 196.03 260.766C207.905 260.223 216.019 258.344 223.116 255.588C230.45 252.741 236.664 248.923 242.862 242.723C249.066 236.528 252.877 230.31 255.735 222.981C258.477 215.892 260.36 207.79 260.917 195.929C261.452 184.04 261.591 180.25 261.591 149.98C261.591 119.709 261.452 115.911 260.917 104.022C260.36 92.1557 258.477 84.0564 255.735 76.9695C252.877 69.6386 249.066 63.4201 242.862 57.2248C236.657 51.0249 230.452 47.2167 223.109 44.3722C215.998 41.6159 207.888 39.7373 196.014 39.194C184.116 38.6529 180.328 38.5206 150.026 38.5206H150.061ZM140.054 58.6065C143.024 58.6019 146.338 58.6065 150.061 58.6065C179.843 58.6065 183.372 58.7133 195.133 59.2474C206.008 59.7444 211.911 61.5601 215.843 63.0857C221.048 65.1059 224.759 67.5209 228.661 71.422C232.565 75.3231 234.981 79.0384 237.008 84.2398C238.535 88.1641 240.354 94.0622 240.849 104.93C241.384 116.679 241.5 120.209 241.5 149.954C241.5 179.7 241.384 183.23 240.849 194.979C240.352 205.847 238.535 211.745 237.008 215.669C234.986 220.871 232.565 224.574 228.661 228.473C224.757 232.374 221.05 234.789 215.843 236.809C211.916 238.342 206.008 240.153 195.133 240.65C183.375 241.184 179.843 241.3 150.061 241.3C120.277 241.3 116.747 241.184 104.988 240.65C94.1131 240.148 88.2107 238.333 84.2764 236.807C79.0711 234.787 75.3529 232.372 71.449 228.471C67.5451 224.57 65.1284 220.864 63.1019 215.66C61.5752 211.735 59.7557 205.837 59.2608 194.97C58.7263 183.22 58.6193 179.691 58.6193 149.927C58.6193 120.162 58.7263 116.651 59.2608 104.902C59.7581 94.0343 61.5752 88.1363 63.1019 84.2074C65.1236 79.0059 67.5451 75.2906 71.449 71.3895C75.3529 67.4884 79.0711 65.0735 84.2764 63.0486C88.2083 61.516 94.1131 59.7049 104.988 59.2055C115.278 58.7411 119.266 58.6019 140.055 58.5785L140.054 58.6065ZM209.601 77.1134C202.211 77.1134 196.216 83.0974 196.216 90.4838C196.216 97.8681 202.211 103.859 209.601 103.859C216.991 103.859 222.986 97.8681 222.986 90.4838C222.986 83.0997 216.991 77.1088 209.601 77.1088L209.601 77.1134ZM150.061 92.7409C118.427 92.7409 92.7792 118.37 92.7792 149.98C92.7792 181.59 118.427 207.207 150.061 207.207C181.695 207.207 207.333 181.59 207.333 149.98C207.333 118.37 181.692 92.7409 150.058 92.7409H150.061ZM150.061 112.827C170.594 112.827 187.242 129.46 187.242 149.98C187.242 170.498 170.594 187.133 150.061 187.133C129.525 187.133 112.88 170.498 112.88 149.98C112.88 129.46 129.525 112.827 150.061 112.827Z" fill="white"/>
</g>
<defs>
<radialGradient id="paint0_radial_19_1669" cx="0" cy="0" r="1" gradientTransform="matrix(-184.487 52.0295 -37.4853 -132.914 290.313 140.614)" gradientUnits="userSpaceOnUse">
<stop stop-color="#FF005F"/>
<stop offset="1" stop-color="#FC01D8"/>
</radialGradient>
<radialGradient id="paint1_radial_19_1669" cx="0" cy="0" r="1" gradientUnits="userSpaceOnUse" gradientTransform="translate(79.6852 323.106) rotate(-90) scale(239.466 254.068)">
<stop stop-color="#FFCC00"/>
<stop offset="0.1242" stop-color="#FFCC00"/>
<stop offset="0.5672" stop-color="#FE4A05"/>
<stop offset="0.6942" stop-color="#FF0F3F"/>
<stop offset="1" stop-color="#FE0657" stop-opacity="0"/>
</radialGradient>
<radialGradient id="paint2_radial_19_1669" cx="0" cy="0" r="1" gradientTransform="matrix(49.7046 -85.6425 111.497 64.71 157.581 295.769)" gradientUnits="userSpaceOnUse">
<stop stop-color="#FFCC00"/>
<stop offset="1" stop-color="#FFCC00" stop-opacity="0"/>
</radialGradient>
<radialGradient id="paint3_radial_19_1669" cx="0" cy="0" r="1" gradientTransform="matrix(-182.461 51.378 -17.5 -62.1656 40.7036 12.2159)" gradientUnits="userSpaceOnUse">
<stop stop-color="#780CFF"/>
<stop offset="1" stop-color="#820BFF" stop-opacity="0"/>
</radialGradient>
<clipPath id="clip0_19_1669">
<rect width="300" height="300" fill="white"/>
</clipPath>
</defs>
</svg>
