<svg width="300" height="300" viewBox="0 0 300 300" fill="none" xmlns="http://www.w3.org/2000/svg">
<path d="M237.393 133.235C189.77 104.953 111.218 102.353 65.756 116.151C58.4553 118.366 50.7348 114.243 48.5234 106.945C46.3106 99.6396 50.4275 91.9248 57.7337 89.7054C109.92 73.8648 196.673 76.9239 251.497 109.468C258.064 113.367 260.218 121.847 256.326 128.403C252.43 134.969 243.943 137.133 237.393 133.235ZM235.833 175.124C232.492 180.545 225.403 182.246 219.989 178.917C180.286 154.512 119.745 147.442 72.7734 161.7C66.6822 163.541 60.2484 160.106 58.3981 154.027C56.5628 147.935 59.9989 141.513 66.0792 139.661C119.737 123.378 186.443 131.265 232.044 159.288C237.458 162.623 239.162 169.715 235.833 175.124ZM217.755 215.353C215.1 219.707 209.432 221.071 205.094 218.417C170.401 197.213 126.733 192.425 75.3073 204.171C70.3517 205.307 65.4127 202.202 64.2826 197.247C63.1475 192.293 66.2412 187.353 71.2077 186.222C127.485 173.357 175.759 178.894 214.7 202.689C219.041 205.341 220.409 211.013 217.755 215.353ZM150.001 2.26172C68.4078 2.26172 2.26174 68.4064 2.26174 149.998C2.26174 231.599 68.4078 297.738 150.001 297.738C231.595 297.738 297.738 231.599 297.738 149.998C297.738 68.4064 231.595 2.26172 150.001 2.26172Z" fill="#1ED760"/>
</svg>
